<mxfile host="app.diagrams.net" modified="2024-07-18T07:32:57.331Z" agent="Mozilla/5.0 (Macintosh; Intel Mac OS X 10_15_7) AppleWebKit/537.36 (KHTML, like Gecko) Chrome/126.0.0.0 Safari/537.36" etag="8EX9nq_PRR8MbetR4N4n" version="24.7.1" type="device">
  <diagram name="Page-1" id="U7xlRd0K_PpgSoOKUwN6">
    <mxGraphModel dx="2064" dy="1923" grid="1" gridSize="10" guides="1" tooltips="1" connect="1" arrows="1" fold="1" page="1" pageScale="1" pageWidth="827" pageHeight="1169" math="0" shadow="0">
      <root>
        <mxCell id="0" />
        <mxCell id="1" parent="0" />
        <mxCell id="iKxOysD-uJd2YZDe9OpK-1" value="" style="rounded=1;whiteSpace=wrap;html=1;" parent="1" vertex="1">
          <mxGeometry x="180" y="90" width="290" height="90" as="geometry" />
        </mxCell>
        <mxCell id="iKxOysD-uJd2YZDe9OpK-2" value="&lt;font style=&quot;font-size: 25px;&quot;&gt;Hashing:&lt;/font&gt;&lt;div style=&quot;font-size: 25px;&quot;&gt;&lt;font style=&quot;font-size: 25px;&quot;&gt;i = hash (key)&amp;nbsp; %&amp;nbsp; k&lt;/font&gt;&lt;/div&gt;" style="text;html=1;align=center;verticalAlign=middle;whiteSpace=wrap;rounded=0;fontSize=11;" parent="1" vertex="1">
          <mxGeometry x="215" y="105" width="220" height="60" as="geometry" />
        </mxCell>
        <mxCell id="iKxOysD-uJd2YZDe9OpK-3" value="&lt;font style=&quot;font-size: 18px;&quot;&gt;i = Server No&lt;/font&gt;&lt;div&gt;&lt;font size=&quot;3&quot;&gt;Key= Data Key&lt;/font&gt;&lt;/div&gt;&lt;div&gt;&lt;font size=&quot;3&quot;&gt;k = No of server&lt;/font&gt;&lt;/div&gt;" style="text;html=1;align=left;verticalAlign=middle;whiteSpace=wrap;rounded=0;" parent="1" vertex="1">
          <mxGeometry x="520" y="150" width="210" height="70" as="geometry" />
        </mxCell>
        <mxCell id="iKxOysD-uJd2YZDe9OpK-4" value="" style="rounded=0;whiteSpace=wrap;html=1;fillColor=#ffe6cc;strokeColor=#d79b00;" parent="1" vertex="1">
          <mxGeometry x="270" y="10" width="110" height="40" as="geometry" />
        </mxCell>
        <mxCell id="iKxOysD-uJd2YZDe9OpK-5" value="" style="endArrow=classic;html=1;rounded=0;exitX=0.5;exitY=1;exitDx=0;exitDy=0;entryX=0.5;entryY=0;entryDx=0;entryDy=0;" parent="1" source="iKxOysD-uJd2YZDe9OpK-4" target="iKxOysD-uJd2YZDe9OpK-1" edge="1">
          <mxGeometry width="50" height="50" relative="1" as="geometry">
            <mxPoint x="330" y="140" as="sourcePoint" />
            <mxPoint x="318" y="91" as="targetPoint" />
          </mxGeometry>
        </mxCell>
        <mxCell id="iKxOysD-uJd2YZDe9OpK-6" value="" style="rounded=1;whiteSpace=wrap;html=1;" parent="1" vertex="1">
          <mxGeometry x="-140" y="300" width="220" height="100" as="geometry" />
        </mxCell>
        <mxCell id="iKxOysD-uJd2YZDe9OpK-7" value="" style="rounded=0;whiteSpace=wrap;html=1;fillColor=#ffe6cc;strokeColor=#d79b00;" parent="1" vertex="1">
          <mxGeometry x="-120" y="360" width="90" height="30" as="geometry" />
        </mxCell>
        <mxCell id="iKxOysD-uJd2YZDe9OpK-8" value="" style="rounded=0;whiteSpace=wrap;html=1;fillColor=#ffe6cc;strokeColor=#d79b00;" parent="1" vertex="1">
          <mxGeometry x="-20" y="335" width="90" height="30" as="geometry" />
        </mxCell>
        <mxCell id="iKxOysD-uJd2YZDe9OpK-9" value="" style="rounded=1;whiteSpace=wrap;html=1;" parent="1" vertex="1">
          <mxGeometry x="110" y="300" width="220" height="100" as="geometry" />
        </mxCell>
        <mxCell id="iKxOysD-uJd2YZDe9OpK-10" value="" style="rounded=0;whiteSpace=wrap;html=1;fillColor=#ffe6cc;strokeColor=#d79b00;" parent="1" vertex="1">
          <mxGeometry x="130" y="320" width="90" height="30" as="geometry" />
        </mxCell>
        <mxCell id="iKxOysD-uJd2YZDe9OpK-11" value="" style="rounded=1;whiteSpace=wrap;html=1;" parent="1" vertex="1">
          <mxGeometry x="360" y="300" width="220" height="100" as="geometry" />
        </mxCell>
        <mxCell id="iKxOysD-uJd2YZDe9OpK-12" value="" style="rounded=0;whiteSpace=wrap;html=1;fillColor=#f8cecc;strokeColor=#b85450;" parent="1" vertex="1">
          <mxGeometry x="380" y="360" width="90" height="30" as="geometry" />
        </mxCell>
        <mxCell id="iKxOysD-uJd2YZDe9OpK-13" value="" style="rounded=1;whiteSpace=wrap;html=1;" parent="1" vertex="1">
          <mxGeometry x="600" y="300" width="220" height="100" as="geometry" />
        </mxCell>
        <mxCell id="iKxOysD-uJd2YZDe9OpK-14" value="" style="rounded=0;whiteSpace=wrap;html=1;fillColor=#ffe6cc;strokeColor=#d79b00;" parent="1" vertex="1">
          <mxGeometry x="620" y="320" width="90" height="30" as="geometry" />
        </mxCell>
        <mxCell id="iKxOysD-uJd2YZDe9OpK-15" value="" style="rounded=0;whiteSpace=wrap;html=1;fillColor=#ffe6cc;strokeColor=#d79b00;" parent="1" vertex="1">
          <mxGeometry x="720" y="335" width="90" height="30" as="geometry" />
        </mxCell>
        <mxCell id="iKxOysD-uJd2YZDe9OpK-16" value="" style="endArrow=classic;html=1;rounded=0;exitX=0.466;exitY=1.007;exitDx=0;exitDy=0;exitPerimeter=0;" parent="1" source="iKxOysD-uJd2YZDe9OpK-1" edge="1">
          <mxGeometry width="50" height="50" relative="1" as="geometry">
            <mxPoint x="300" y="250" as="sourcePoint" />
            <mxPoint x="-20" y="290" as="targetPoint" />
          </mxGeometry>
        </mxCell>
        <mxCell id="iKxOysD-uJd2YZDe9OpK-17" value="" style="endArrow=classic;html=1;rounded=0;entryX=0.438;entryY=-0.031;entryDx=0;entryDy=0;entryPerimeter=0;" parent="1" target="iKxOysD-uJd2YZDe9OpK-9" edge="1">
          <mxGeometry width="50" height="50" relative="1" as="geometry">
            <mxPoint x="310" y="180" as="sourcePoint" />
            <mxPoint x="-10" y="300" as="targetPoint" />
          </mxGeometry>
        </mxCell>
        <mxCell id="iKxOysD-uJd2YZDe9OpK-18" value="" style="endArrow=classic;html=1;rounded=0;entryX=0.5;entryY=0;entryDx=0;entryDy=0;" parent="1" target="iKxOysD-uJd2YZDe9OpK-11" edge="1">
          <mxGeometry width="50" height="50" relative="1" as="geometry">
            <mxPoint x="310" y="180" as="sourcePoint" />
            <mxPoint x="216" y="307" as="targetPoint" />
          </mxGeometry>
        </mxCell>
        <mxCell id="iKxOysD-uJd2YZDe9OpK-19" value="" style="endArrow=classic;html=1;rounded=0;entryX=0.466;entryY=-0.031;entryDx=0;entryDy=0;entryPerimeter=0;" parent="1" target="iKxOysD-uJd2YZDe9OpK-13" edge="1">
          <mxGeometry width="50" height="50" relative="1" as="geometry">
            <mxPoint x="310" y="180" as="sourcePoint" />
            <mxPoint x="226" y="317" as="targetPoint" />
          </mxGeometry>
        </mxCell>
        <mxCell id="iKxOysD-uJd2YZDe9OpK-20" value="&lt;font style=&quot;font-size: 18px;&quot;&gt;S0&lt;/font&gt;" style="text;html=1;align=center;verticalAlign=middle;whiteSpace=wrap;rounded=0;" parent="1" vertex="1">
          <mxGeometry x="-70" y="410" width="60" height="30" as="geometry" />
        </mxCell>
        <mxCell id="iKxOysD-uJd2YZDe9OpK-21" value="&lt;font style=&quot;font-size: 18px;&quot;&gt;S1&lt;/font&gt;" style="text;html=1;align=center;verticalAlign=middle;whiteSpace=wrap;rounded=0;" parent="1" vertex="1">
          <mxGeometry x="180" y="410" width="60" height="30" as="geometry" />
        </mxCell>
        <mxCell id="iKxOysD-uJd2YZDe9OpK-22" value="&lt;font style=&quot;font-size: 18px;&quot;&gt;S2&lt;/font&gt;" style="text;html=1;align=center;verticalAlign=middle;whiteSpace=wrap;rounded=0;" parent="1" vertex="1">
          <mxGeometry x="450" y="410" width="60" height="30" as="geometry" />
        </mxCell>
        <mxCell id="iKxOysD-uJd2YZDe9OpK-23" value="&lt;font style=&quot;font-size: 18px;&quot;&gt;S3&lt;/font&gt;" style="text;html=1;align=center;verticalAlign=middle;whiteSpace=wrap;rounded=0;" parent="1" vertex="1">
          <mxGeometry x="680" y="410" width="60" height="30" as="geometry" />
        </mxCell>
        <mxCell id="iKxOysD-uJd2YZDe9OpK-24" value="&lt;span style=&quot;color: rgb(107, 107, 107); font-family: sohne, &amp;quot;Helvetica Neue&amp;quot;, Helvetica, Arial, sans-serif; background-color: rgb(255, 255, 255);&quot;&gt;&lt;font style=&quot;font-size: 18px;&quot;&gt;&lt;b&gt;Now S2 is down- result in rehashing for system&lt;/b&gt;&lt;/font&gt;&lt;/span&gt;" style="text;html=1;align=center;verticalAlign=middle;whiteSpace=wrap;rounded=0;" parent="1" vertex="1">
          <mxGeometry x="-170" y="450" width="1040" height="30" as="geometry" />
        </mxCell>
        <mxCell id="iKxOysD-uJd2YZDe9OpK-25" value="" style="shape=mxgraph.mockup.markup.redX;fillColor=#ff0000;html=1;shadow=0;whiteSpace=wrap;strokeColor=none;" parent="1" vertex="1">
          <mxGeometry x="445" y="290" width="50" height="40" as="geometry" />
        </mxCell>
        <mxCell id="e9zeYr08__9xM87kX_yF-1" value="" style="rounded=0;whiteSpace=wrap;html=1;fillOpacity=0;" vertex="1" parent="1">
          <mxGeometry x="-170" y="-60" width="1020" height="560" as="geometry" />
        </mxCell>
      </root>
    </mxGraphModel>
  </diagram>
</mxfile>
